# xmcd
#
# Track frame offsets:
#	188
#	13663
#	25488
#	39138
#	52463
#	62463
#	72413
#	84163
#	96413
#	108213
#	120338
#	131213
#	141188
#	151588
#	168763
#	182463
#
# Disc length: 2568 seconds
#
# Revision: 1
# Processed by: cddbd v1.5.1PL0 Copyright (c) Steve Scherf et al.
# Submitted via: audiograbber 1.83.01
#
DISCID=ca0a0610
DTITLE=Various Artist - Country Und Western Festival
DYEAR=1990
DGENRE=Country
TTITLE0=Freddy Quinn - It's Country Time
TTITLE1=Ferlin Husky - Money Greases The Wheels
TTITLE2=Ronnie Rogers - Diane (Do We Wrong Again With Me)
TTITLE3=Linda Manning - If Only For A Moment
TTITLE4=Bobby Bare - West Virginia Woman
TTITLE5=Rick Johnson - Please, Don't Love Me
TTITLE6=Dave Dudley - Where Did All The Cowboys Go
TTITLE7=David Price - I need A Friend
TTITLE8=Dave Dudley - Six Days On The Road
TTITLE9=Ferlin Husky - I Could Sing All Night
TTITLE10=Freddy Quinn - Tom Dooley
TTITLE11=Ronnie Rogers - The Fool On The Stool
TTITLE12=Linda Manning - Bonjour Tristesse
TTITLE13=Bobby Bare - Sylvia's Mother
TTITLE14=Rick Johnson - I've Heard Those Very Lines Before
TTITLE15=David Price - Jack Knife
EXTD=
EXTT0=
EXTT1=
EXTT2=
EXTT3=
EXTT4=
EXTT5=
EXTT6=
EXTT7=
EXTT8=
EXTT9=
EXTT10=
EXTT11=
EXTT12=
EXTT13=
EXTT14=
EXTT15=
PLAYORDER=
